# xmcd CD database file
#
# Track frame offsets:
#	150
#	14392
#	28837
#	39880
#	52852
#	62890
#	84757
#	108765
#	122880
#	135847
#	145912
#	165192
#	187482
#	200192
#	212435
#	227680
#	243605
#	262580
#	277477
#
# Disc length: 3878 seconds
#
# Revision: 0
# Processed by: cddbd v1.5.1PL2 Copyright (c) Steve Scherf et al.
# Submitted via: CDex 1.51
#
DISCID=070f2413
DTITLE=Various Artist - Jazz Vocal best
DYEAR=1900
DGENRE=Jazz
TTITLE0=WHEN I FALL IN LOVE
TTITLE1=ALL OR NOTHING AT ALL
TTITLE2=DON'T SMOKE IN BED
TTITLE3=BUT BEAUTIFUL
TTITLE4=SOFTLY AS IN A MORNING SUNRISE
TTITLE5=COME RAIN OR COME SHINE
TTITLE6=MOON RIVER
TTITLE7=I'LL BE SEEING YOU
TTITLE8='ROUND MIDNIGHT
TTITLE9=JUST IN TIME
TTITLE10=THE MAN I LOVE
TTITLE11=SUMMERTIME
TTITLE12=THE THRILL IS GONE
TTITLE13=PRELUDE TO A KISS
TTITLE14=CHEROKEE
TTITLE15=ANGEL EYES
TTITLE16=HERE'S THAT RAINY DAY
TTITLE17=BEGIN THE BEGUINE
TTITLE18=STARS FELL ON ALABAMA
EXTD=
EXTT0=
EXTT1=
EXTT2=
EXTT3=
EXTT4=
EXTT5=
EXTT6=
EXTT7=
EXTT8=
EXTT9=
EXTT10=
EXTT11=
EXTT12=
EXTT13=
EXTT14=
EXTT15=
EXTT16=
EXTT17=
EXTT18=
PLAYORDER=
